HIERARCHY
ROOT Hips
{
	OFFSET	0.00	0.00	0.00
	CHANNELS 6 Xposition Yposition Zposition Zrotation Xrotation Yrotation
	JOINT LeftUpLeg
	{
		OFFSET	 0.126116	-0.014019	-0.065224
		CHANNELS 3 Zrotation Xrotation Yrotation
		JOINT LeftLeg
		{
			OFFSET	 0.000000	 0.000000	 0.569914
			CHANNELS 3 Zrotation Xrotation Yrotation
			JOINT LeftFoot
			{
				OFFSET	 0.000000	 0.000000	 0.544423
				CHANNELS 3 Zrotation Xrotation Yrotation
				JOINT LeftToeBase
				{
					OFFSET	 0.000000	 0.000000	 0.207117
					CHANNELS 3 Zrotation Xrotation Yrotation
					End Site
					{
						OFFSET	 0.000000	 0.000000	 0.207117
					}
				}
			}
		}
	}
	JOINT RightUpLeg
	{
		OFFSET	-0.124023	-0.008373	-0.065224
		CHANNELS 3 Zrotation Xrotation Yrotation
		JOINT RightLeg
		{
			OFFSET	 0.000000	 0.000000	 0.570047
			CHANNELS 3 Zrotation Xrotation Yrotation
			JOINT RightFoot
			{
				OFFSET	 0.000000	 0.000000	 0.544354
				CHANNELS 3 Zrotation Xrotation Yrotation
				JOINT RightToeBase
				{
					OFFSET	 0.000000	 0.000000	 0.207540
					CHANNELS 3 Zrotation Xrotation Yrotation
					End Site
					{
						OFFSET	 0.000000	 0.000000	 0.207540
					}
				}
			}
		}
	}
	JOINT Spine
	{
		OFFSET	 0.000184	-0.007763	 0.117403
		CHANNELS 3 Zrotation Xrotation Yrotation
		JOINT Spine1
		{
			OFFSET	 0.000000	 0.000000	 0.137269
			CHANNELS 3 Zrotation Xrotation Yrotation
			JOINT Spine2
			{
				OFFSET	 0.000000	 0.000000	 0.156879
				CHANNELS 3 Zrotation Xrotation Yrotation
				JOINT LeftShoulder
				{
					OFFSET	 0.080501	-0.002496	 0.160144
					CHANNELS 3 Zrotation Xrotation Yrotation
					JOINT LeftArm
					{
						OFFSET	 0.000000	 0.000000	 0.164363
						CHANNELS 3 Zrotation Xrotation Yrotation
						JOINT LeftForeArm
						{
							OFFSET	 0.000000	 0.000000	 0.364576
							CHANNELS 3 Zrotation Xrotation Yrotation
							JOINT LeftHand
							{
								OFFSET	 0.000000	 0.000000	 0.360812
								CHANNELS 3 Zrotation Xrotation Yrotation
								JOINT LeftHandIndex1
								{
									OFFSET	 0.000000	 0.000000	 0.086006
									CHANNELS 3 Zrotation Xrotation Yrotation
									JOINT LeftHandIndex2
									{
										OFFSET	 0.000000	 0.000000	 0.047237
										CHANNELS 3 Zrotation Xrotation Yrotation
										JOINT LeftHandIndex3
										{
											OFFSET	-0.004284	-0.000551	 0.038165
											CHANNELS 3 Zrotation Xrotation Yrotation
											End Site
											{
												OFFSET	-0.004284	-0.000551	 0.038165
											}
										}
									}
								}
							}
						}
					}
				}
				JOINT Neck
				{
					OFFSET	 0.000000	 0.000000	 0.176489
					CHANNELS 3 Zrotation Xrotation Yrotation
					JOINT Head
					{
						OFFSET	 0.000000	-0.001747	 0.077940
						CHANNELS 3 Zrotation Xrotation Yrotation
						End Site
						{
							OFFSET	 0.000000	-0.001747	 0.077940
						}
					}
				}
				JOINT RightShoulder
				{
					OFFSET	-0.080363	 0.000306	 0.159706
					CHANNELS 3 Zrotation Xrotation Yrotation
					JOINT RightArm
					{
						OFFSET	 0.000000	 0.000000	 0.164196
						CHANNELS 3 Zrotation Xrotation Yrotation
						JOINT RightForeArm
						{
							OFFSET	 0.000000	 0.000000	 0.365611
							CHANNELS 3 Zrotation Xrotation Yrotation
							JOINT RightHand
							{
								OFFSET	 0.000000	 0.000000	 0.360648
								CHANNELS 3 Zrotation Xrotation Yrotation
								JOINT RightHandIndex1
								{
									OFFSET	 0.000000	 0.000000	 0.069977
									CHANNELS 3 Zrotation Xrotation Yrotation
									JOINT RightHandIndex2
									{
										OFFSET	 0.000000	 0.000000	 0.052305
										CHANNELS 3 Zrotation Xrotation Yrotation
										JOINT RightHandIndex3
										{
											OFFSET	 0.009002	-0.000782	 0.042196
											CHANNELS 3 Zrotation Xrotation Yrotation
											End Site
											{
												OFFSET	 0.009002	-0.000782	 0.042196
											}
										}
									}
								}
							}
						}
					}
				}
			}
		}
	}
}
MOTION
Frames:    11
Frame Time: 0.03333334
-0.401465	 0.198223	 1.224073	-175.446500	 12.775860	 13.144410	 38.147270	-15.495760	 172.884700	-8.667720	-43.023400	-6.326214	 147.925100	 76.045700	-159.438100	-2.385833	 28.452760	 0.000004	-31.564630	-40.004990	 151.544800	 5.892008	-50.539510	 3.376060	-14.483900	 76.518650	 32.979660	 2.384659	 28.388700	-0.000001	 91.194340	-23.275090	 20.667060	 53.626160	 20.410820	 4.804447	-21.298470	-6.735550	-23.114350	-91.776200	 78.527350	-180.000000	 1.609836	 4.347132	-33.624060	-5.377804	 30.520770	-80.371080	-44.715190	-19.416090	-22.030290	-4.130319	 21.525730	 0.991547	-5.167930	 0.731704	 3.519349	-1.378229	 35.397820	-2.634230	-17.930440	 7.608172	 7.589884	-26.941670	-22.038330	-16.843690	 89.782110	 78.203890	 180.000000	 70.556100	 2.657063	-6.906946	-2.615445	 23.048060	 66.041760	-86.444850	-44.508570	-118.165300	 5.716227	 19.173190	-3.685159	 5.027444	 0.246877	-9.377972	-2.350882	 35.473990	 5.254307
-0.408579	 0.211454	 1.227573	-174.414200	 12.434640	 11.265890	 39.186610	-11.878880	 173.915700	-8.643341	-39.770340	-5.918442	 146.033400	 76.171960	-156.776100	-2.385833	 28.452760	 0.000004	-29.212010	-40.070920	 155.102100	 5.968954	-50.704850	 3.443741	-10.604330	 77.293720	 28.443880	 2.384659	 28.388700	-0.000001	 88.474590	-21.137480	 21.122910	 50.423950	 19.466500	 6.504746	-20.571980	-6.071487	-22.759130	-91.776210	 78.527380	-180.000000	 1.416604	 3.388440	-28.467580	-4.756444	 29.266700	-81.284740	-43.890640	-20.204060	-22.233930	-4.130319	 21.525730	 0.991547	-5.167930	 0.731704	 3.519349	-1.378229	 35.397820	-2.634230	-17.501760	 7.703964	 8.339900	-26.582420	-21.782890	-18.098370	 89.782150	 78.203870	 180.000000	 83.858140	-1.343638	 0.101663	 0.734829	 22.072250	 59.271470	-88.953900	-41.962700	-99.374670	 5.716227	 19.173190	-3.685159	 5.027444	 0.246877	-9.377972	-2.350882	 35.473990	 5.254307
-0.414003	 0.224149	 1.230932	-172.882300	 11.393820	 9.850823	 40.006730	-7.951710	 173.600700	-8.812434	-36.255520	-5.575931	 146.366700	 76.222890	-156.369400	-2.385833	 28.452760	 0.000004	-26.501120	-39.196010	 158.636400	 5.936904	-50.883780	 3.427572	-5.656816	 78.919240	 22.418220	 2.384659	 28.388700	-0.000001	 84.383710	-18.820490	 20.206120	 47.111610	 18.410010	 8.810382	-19.716600	-5.698992	-22.346990	-91.776120	 78.527380	 179.999900	 0.536129	 3.891394	-22.613790	-3.447503	 28.157500	-84.119220	-43.234250	-21.618130	-23.187840	-4.130319	 21.525730	 0.991547	-5.167930	 0.731704	 3.519349	-1.378229	 35.397820	-2.634230	-16.759790	 7.676945	 8.195860	-25.861950	-22.247170	-17.047730	 89.782070	 78.203890	-180.000000	 78.822490	-6.627439	 17.427950	 11.314040	 13.481920	 23.942870	-85.844570	-57.409920	-94.104650	 5.716227	 19.173190	-3.685159	 5.027444	 0.246877	-9.377972	-2.350882	 35.473990	 5.254307
-0.417232	 0.232619	 1.233444	-171.557300	 10.516960	 9.135075	 40.853740	-5.235394	 173.058000	-9.112130	-33.009080	-5.305327	 141.000600	 76.822250	-150.618500	-2.385833	 28.452760	 0.000004	-24.076970	-38.820980	 160.933300	 5.455341	-50.912330	 3.054385	 2.496119	 79.828460	 13.254400	 2.384659	 28.388700	-0.000001	 80.727070	-17.790140	 19.523250	 44.663560	 16.870380	 11.041310	-18.551430	-4.246308	-22.241620	-91.776170	 78.527380	-180.000000	-1.703769	 5.614045	-18.793890	-2.707115	 27.413580	-86.233640	-42.783810	-23.129790	-24.525720	-4.130319	 21.525730	 0.991547	-5.167930	 0.731704	 3.519349	-1.378229	 35.397820	-2.634230	-16.062300	 7.845715	 8.641752	-25.323150	-22.162220	-17.647010	 89.782060	 78.203900	-180.000000	 73.019580	-10.372150	 16.571610	 10.326770	 12.470000	 23.199170	-82.425790	-55.580490	-90.578220	 5.716227	 19.173190	-3.685159	 5.027444	 0.246877	-9.377972	-2.350882	 35.473990	 5.254307
-0.418055	 0.237225	 1.234955	-170.459700	 9.497696	 8.428503	 41.139180	-3.317009	 172.616100	-9.723004	-31.072850	-5.350220	 137.836100	 77.001530	-146.899900	-2.385833	 28.452760	 0.000004	-22.194650	-37.994120	 162.784100	 5.148914	-50.419600	 2.796382	 6.991225	 80.022420	 8.244102	 2.384659	 28.388700	-0.000001	 77.538940	-15.932340	 18.770510	 42.469000	 15.140210	 13.014520	-17.528110	-3.508073	-21.830330	-91.776200	 78.527360	 180.000000	-3.625681	 7.096332	-17.004460	-2.936693	 26.991950	-86.404300	-42.518860	-24.168210	-25.656090	-4.130319	 21.525730	 0.991547	-5.167930	 0.731704	 3.519349	-1.378229	 35.397820	-2.634230	-14.996300	 8.995977	 7.855968	-24.777480	-23.533370	-16.707290	 89.782100	 78.203850	 180.000000	 66.246320	-12.452500	 15.165630	 9.819101	 11.666680	 22.576260	-79.001550	-55.263120	-89.012950	 5.716227	 19.173190	-3.685159	 5.027444	 0.246877	-9.377972	-2.350882	 35.473990	 5.254307
-0.417686	 0.237854	 1.235313	-169.894300	 8.987657	 8.098952	 41.818630	-2.844246	 172.251400	-10.250100	-30.692130	-5.567328	 138.301500	 76.859110	-146.950100	-2.385833	 28.452760	 0.000004	-20.059500	-37.874030	 163.869300	 4.293627	-50.095120	 2.126324	 11.871950	 79.797370	 3.342314	 2.384659	 28.388700	-0.000001	 76.053120	-14.857830	 18.225040	 41.586850	 14.297280	 13.953040	-16.909670	-3.025818	-21.474020	-91.776210	 78.527420	-180.000000	-4.910155	 7.917147	-16.930200	-3.291562	 26.623490	-85.762520	-42.112790	-24.834660	-26.161080	-4.130319	 21.525730	 0.991547	-5.167930	 0.731704	 3.519349	-1.378229	 35.397820	-2.634230	-14.183980	 8.766173	 7.329741	-24.159000	-23.193940	-15.937790	 89.782070	 78.203850	-180.000000	 62.992940	-12.820190	 14.360620	 9.492108	 11.275090	 22.260340	-76.308070	-55.182180	-88.063420	 5.716227	 19.173190	-3.685159	 5.027444	 0.246877	-9.377972	-2.350882	 35.473990	 5.254307
-0.417051	 0.237778	 1.236002	-169.479700	 8.352582	 8.428264	 43.012130	-2.974968	 171.205700	-11.296120	-30.645040	-6.108546	 139.598000	 76.804150	-147.531200	-2.385833	 28.452760	 0.000004	-18.413260	-37.173840	 164.161200	 3.595797	-49.429370	 1.575059	 14.730760	 79.532150	 0.363017	 2.384659	 28.388700	-0.000001	 74.486210	-14.057870	 16.826740	 40.858190	 13.183180	 15.174400	-15.962810	-2.094152	-21.126020	-91.776090	 78.527360	 179.999900	-6.364398	 9.001122	-17.405280	-3.866262	 26.326850	-84.675750	-41.871920	-25.654260	-26.927010	-4.130319	 21.525730	 0.991547	-5.167930	 0.731704	 3.519349	-1.378229	 35.397820	-2.634230	-13.333620	 8.312135	 7.415123	-23.407080	-22.528270	-15.931480	 89.782130	 78.203900	 180.000000	 59.998510	-12.830510	 13.600670	 8.952592	 10.910750	 21.963820	-71.068900	-55.467680	-85.243450	 5.716227	 19.173190	-3.685159	 5.027444	 0.246877	-9.377972	-2.350882	 35.473990	 5.254307
-0.416929	 0.237733	 1.236451	-169.890800	 8.378241	 8.174055	 44.161220	-2.775456	 171.348700	-12.007920	-30.267940	-6.412230	 141.350600	 75.899640	-148.540700	-2.385833	 28.452760	 0.000004	-17.228760	-37.524920	 164.659100	 2.940876	-49.420070	 1.077243	 18.039770	 78.927140	-2.808193	 2.384659	 28.388700	-0.000001	 74.944200	-13.933770	 17.322830	 40.705330	 13.025260	 15.041080	-15.863160	-1.962087	-21.030320	-91.776170	 78.527380	 180.000000	-6.432560	 8.908047	-17.606500	-3.972778	 26.289720	-84.509770	-42.047870	-25.580430	-26.939200	-4.130319	 21.525730	 0.991547	-5.167930	 0.731704	 3.519349	-1.378229	 35.397820	-2.634230	-13.377370	 8.364567	 7.836237	-23.351170	-22.287770	-16.908120	 89.782000	 78.203870	-179.999900	 60.337530	-12.510080	 13.603160	 8.740402	 10.831940	 21.900050	-67.729320	-54.807260	-82.933040	 5.716227	 19.173190	-3.685159	 5.027444	 0.246877	-9.377972	-2.350882	 35.473990	 5.254307
-0.416852	 0.237849	 1.236693	-170.488000	 8.413347	 8.474138	 44.695920	-2.994036	 171.248900	-12.653120	-30.197480	-6.735875	 142.117600	 74.976280	-148.788000	-2.385833	 28.452760	 0.000004	-17.233800	-37.424780	 164.242100	 2.721816	-49.221900	 0.908116	 18.389410	 78.644650	-3.166315	 2.384659	 28.388700	-0.000001	 75.505000	-14.268950	 17.343340	 40.758520	 12.912260	 14.954700	-15.898260	-1.746611	-21.126600	-91.776250	 78.527380	-180.000000	-5.631034	 8.175652	-17.797190	-4.075931	 26.344910	-84.411660	-42.474240	-24.947760	-26.528300	-4.130319	 21.525730	 0.991547	-5.167930	 0.731704	 3.519349	-1.378229	 35.397820	-2.634230	-13.419270	 8.551476	 7.532271	-23.502170	-22.469500	-16.983640	 89.782030	 78.203870	-180.000000	 62.265040	-12.033660	 14.106290	 8.630503	 10.788540	 21.864880	-65.562620	-54.153900	-80.533740	 5.716227	 19.173190	-3.685159	 5.027444	 0.246877	-9.377972	-2.350882	 35.473990	 5.254307
-0.416452	 0.238307	 1.237558	-170.892800	 8.610232	 9.110385	 44.616910	-3.610708	 171.091900	-13.275940	-30.225940	-7.068480	 142.861900	 73.626660	-149.146700	-2.385833	 28.452760	 0.000004	-18.187880	-37.016010	 163.241300	 2.854208	-48.673520	 1.000022	 17.026580	 78.601620	-1.972991	 2.384659	 28.388700	-0.000001	 75.566410	-15.105240	 17.288100	 40.638570	 12.315070	 15.056510	-15.538160	-0.843078	-21.498650	-91.776190	 78.527400	-180.000000	-3.765325	 6.233398	-18.402020	-4.312085	 26.029380	-83.796680	-42.921500	-23.602260	-25.210410	-4.130319	 21.525730	 0.991547	-5.167930	 0.731704	 3.519349	-1.378229	 35.397820	-2.634230	-13.171050	 9.007361	 6.911682	-23.603080	-23.132420	-17.097170	 89.782100	 78.203870	 180.000000	 67.403240	-10.489010	 15.382280	 8.265598	 10.589380	 21.698530	-60.515310	-52.671150	-73.752810	 5.716227	 19.173190	-3.685159	 5.027444	 0.246877	-9.377972	-2.350882	 35.473990	 5.254307
-0.416004	 0.238684	 1.238810	-171.698100	 8.933612	 9.394749	 44.768270	-3.872910	 171.411200	-13.331850	-30.026010	-7.055776	 142.555600	 72.977260	-148.724700	-2.385833	 28.452760	 0.000004	-18.631540	-37.012310	 162.668600	 2.998577	-48.289910	 1.101919	 16.807950	 78.610420	-1.836813	 2.384659	 28.388700	-0.000001	 76.368910	-16.217400	 17.939740	 40.831420	 12.590030	 14.518000	-15.693140	-0.680819	-21.886150	-91.776280	 78.527360	-179.999900	-1.704518	 4.154822	-19.020820	-4.574396	 25.685270	-83.118130	-43.225640	-22.202090	-23.802400	-4.130319	 21.525730	 0.991547	-5.167930	 0.731704	 3.519349	-1.378229	 35.397820	-2.634230	-13.393150	 8.664525	 6.860054	-23.830780	-22.956290	-17.397580	 89.782120	 78.203890	 180.000000	 72.567120	-8.645189	 16.461430	 8.373364	 10.368220	 21.505850	-59.036070	-51.874860	-69.936550	 5.716227	 19.173190	-3.685159	 5.027444	 0.246877	-9.377972	-2.350882	 35.473990	 5.254307
